<svg width="261" height="201" viewBox="0 0 261 201" fill="none" xmlns="http://www.w3.org/2000/svg">
<circle cx="9.10465" cy="39.3372" r="9.10465" fill="#D9E7FF" fill-opacity="0.8"/>
<circle cx="9.10465" cy="69.6861" r="9.10465" fill="#D9E7FF" fill-opacity="0.8"/>
<circle cx="9.10465" cy="9.53446" r="9.10465" fill="#D9E7FF" fill-opacity="0.8"/>
<circle cx="9.10465" cy="100.035" r="9.10465" fill="#D9E7FF" fill-opacity="0.8"/>
<circle cx="9.10465" cy="130.384" r="9.10465" fill="#D9E7FF" fill-opacity="0.8"/>
<circle cx="9.10465" cy="160.733" r="9.10465" fill="#D9E7FF" fill-opacity="0.8"/>
<circle cx="9.10465" cy="191.081" r="9.10465" fill="#D9E7FF" fill-opacity="0.8"/>
<circle cx="100.151" cy="39.3372" r="9.10465" fill="#D9E7FF" fill-opacity="0.8"/>
<circle cx="100.151" cy="69.6861" r="9.10465" fill="#D9E7FF" fill-opacity="0.8"/>
<circle cx="100.151" cy="9.53446" r="9.10465" fill="#D9E7FF" fill-opacity="0.8"/>
<circle cx="100.151" cy="100.035" r="9.10465" fill="#D9E7FF" fill-opacity="0.8"/>
<circle cx="100.151" cy="130.384" r="9.10465" fill="#D9E7FF" fill-opacity="0.8"/>
<circle cx="100.151" cy="160.733" r="9.10465" fill="#D9E7FF" fill-opacity="0.8"/>
<circle cx="100.151" cy="191.081" r="9.10465" fill="#D9E7FF" fill-opacity="0.8"/>
<circle cx="191.198" cy="39.3372" r="9.10465" fill="#D9E7FF" fill-opacity="0.8"/>
<circle cx="191.198" cy="69.6861" r="9.10465" fill="#D9E7FF" fill-opacity="0.8"/>
<circle cx="191.198" cy="9.53446" r="9.10465" fill="#D9E7FF" fill-opacity="0.8"/>
<circle cx="191.198" cy="100.035" r="9.10465" fill="#D9E7FF" fill-opacity="0.8"/>
<circle cx="191.198" cy="130.384" r="9.10465" fill="#D9E7FF" fill-opacity="0.8"/>
<circle cx="191.198" cy="160.733" r="9.10465" fill="#D9E7FF" fill-opacity="0.8"/>
<circle cx="191.198" cy="191.081" r="9.10465" fill="#D9E7FF" fill-opacity="0.8"/>
<circle cx="39.4533" cy="39.3372" r="9.10465" fill="#D9E7FF" fill-opacity="0.8"/>
<circle cx="39.4533" cy="69.6861" r="9.10465" fill="#D9E7FF" fill-opacity="0.8"/>
<circle cx="39.4533" cy="9.53446" r="9.10465" fill="#D9E7FF" fill-opacity="0.8"/>
<circle cx="39.4533" cy="100.035" r="9.10465" fill="#D9E7FF" fill-opacity="0.8"/>
<circle cx="39.4533" cy="130.384" r="9.10465" fill="#D9E7FF" fill-opacity="0.8"/>
<circle cx="39.4533" cy="160.733" r="9.10465" fill="#D9E7FF" fill-opacity="0.8"/>
<circle cx="39.4533" cy="191.081" r="9.10465" fill="#D9E7FF" fill-opacity="0.8"/>
<circle cx="130.5" cy="39.3372" r="9.10465" fill="#D9E7FF" fill-opacity="0.8"/>
<circle cx="130.5" cy="69.6861" r="9.10465" fill="#D9E7FF" fill-opacity="0.8"/>
<circle cx="130.5" cy="9.53446" r="9.10465" fill="#D9E7FF" fill-opacity="0.8"/>
<circle cx="130.5" cy="100.035" r="9.10465" fill="#D9E7FF" fill-opacity="0.8"/>
<circle cx="130.5" cy="130.384" r="9.10465" fill="#D9E7FF" fill-opacity="0.8"/>
<circle cx="130.5" cy="160.733" r="9.10465" fill="#D9E7FF" fill-opacity="0.8"/>
<circle cx="130.5" cy="191.081" r="9.10465" fill="#D9E7FF" fill-opacity="0.8"/>
<circle cx="221.547" cy="39.3372" r="9.10465" fill="#D9E7FF" fill-opacity="0.8"/>
<circle cx="221.547" cy="69.6861" r="9.10465" fill="#D9E7FF" fill-opacity="0.8"/>
<circle cx="221.547" cy="9.53446" r="9.10465" fill="#D9E7FF" fill-opacity="0.8"/>
<circle cx="221.547" cy="100.035" r="9.10465" fill="#D9E7FF" fill-opacity="0.8"/>
<circle cx="221.547" cy="130.384" r="9.10465" fill="#D9E7FF" fill-opacity="0.8"/>
<circle cx="221.547" cy="160.733" r="9.10465" fill="#D9E7FF" fill-opacity="0.8"/>
<circle cx="221.547" cy="191.081" r="9.10465" fill="#D9E7FF" fill-opacity="0.8"/>
<circle cx="69.8024" cy="39.3372" r="9.10465" fill="#D9E7FF" fill-opacity="0.8"/>
<circle cx="69.8024" cy="69.6861" r="9.10465" fill="#D9E7FF" fill-opacity="0.8"/>
<circle cx="69.8024" cy="9.53446" r="9.10465" fill="#D9E7FF" fill-opacity="0.8"/>
<circle cx="69.8024" cy="100.035" r="9.10465" fill="#D9E7FF" fill-opacity="0.8"/>
<circle cx="69.8024" cy="130.384" r="9.10465" fill="#D9E7FF" fill-opacity="0.8"/>
<circle cx="69.8024" cy="160.733" r="9.10465" fill="#D9E7FF" fill-opacity="0.8"/>
<circle cx="69.8024" cy="191.081" r="9.10465" fill="#D9E7FF" fill-opacity="0.8"/>
<circle cx="160.849" cy="39.3372" r="9.10465" fill="#D9E7FF" fill-opacity="0.8"/>
<circle cx="160.849" cy="69.6861" r="9.10465" fill="#D9E7FF" fill-opacity="0.8"/>
<circle cx="160.849" cy="9.53446" r="9.10465" fill="#D9E7FF" fill-opacity="0.8"/>
<circle cx="160.849" cy="100.035" r="9.10465" fill="#D9E7FF" fill-opacity="0.8"/>
<circle cx="160.849" cy="130.384" r="9.10465" fill="#D9E7FF" fill-opacity="0.8"/>
<circle cx="160.849" cy="160.733" r="9.10465" fill="#D9E7FF" fill-opacity="0.8"/>
<circle cx="160.849" cy="191.081" r="9.10465" fill="#D9E7FF" fill-opacity="0.8"/>
<circle cx="251.895" cy="39.3372" r="9.10465" fill="#D9E7FF" fill-opacity="0.8"/>
<circle cx="251.895" cy="69.6861" r="9.10465" fill="#D9E7FF" fill-opacity="0.8"/>
<circle cx="251.895" cy="9.53446" r="9.10465" fill="#D9E7FF" fill-opacity="0.8"/>
<circle cx="251.895" cy="100.035" r="9.10465" fill="#D9E7FF" fill-opacity="0.8"/>
<circle cx="251.895" cy="130.384" r="9.10465" fill="#D9E7FF" fill-opacity="0.8"/>
<circle cx="251.895" cy="160.733" r="9.10465" fill="#D9E7FF" fill-opacity="0.8"/>
<circle cx="251.895" cy="191.081" r="9.10465" fill="#D9E7FF" fill-opacity="0.8"/>
</svg>
